<?xml version="1.0" standalone="no"?><!DOCTYPE svg PUBLIC "-//W3C//DTD SVG 1.1//EN" "http://www.w3.org/Graphics/SVG/1.1/DTD/svg11.dtd"><svg t="1637739896790" class="icon" viewBox="0 0 1024 1024" version="1.1" xmlns="http://www.w3.org/2000/svg" p-id="2282" width="32" height="32" xmlns:xlink="http://www.w3.org/1999/xlink"><defs><style type="text/css"></style></defs><path d="M595.2 1024H448c-40 0-72-32-72-72V592H272c-40 0-72-32-72-72v-110.4c0-40 32-73.6 72-73.6h104v-88c0-145.6 99.2-248 240-248H752c22.4 0 40 17.6 40 40v208c0 22.4-17.6 40-40 40h-88v48H752c22.4 1.6 43.2 11.2 56 28.8 12.8 17.6 19.2 38.4 14.4 60.8l-20.8 107.2c-4.8 33.6-33.6 59.2-70.4 59.2h-68.8v360c1.6 40-30.4 72-67.2 72z m-139.2-80h128V552c0-22.4 17.6-40 40-40h100.8l19.2-96H624c-22.4 0-40-17.6-40-40v-128c0-22.4 17.6-40 40-40h88V80h-96c-97.6 0-160 65.6-160 168v128c0 22.4-17.6 40-40 40h-136v96H416c22.4 0 40 17.6 40 40V944z" p-id="2283"></path></svg>