<?xml version="1.0" standalone="no"?><!DOCTYPE svg PUBLIC "-//W3C//DTD SVG 1.1//EN" "http://www.w3.org/Graphics/SVG/1.1/DTD/svg11.dtd"><svg t="1637739936236" class="icon" viewBox="0 0 1024 1024" version="1.1" xmlns="http://www.w3.org/2000/svg" p-id="3098" xmlns:xlink="http://www.w3.org/1999/xlink" width="32" height="32"><defs><style type="text/css"></style></defs><path d="M746.666667 170.666667c42.666667 0 83.2 23.466667 102.4 61.866667 2.133333 4.266667 4.266667 8.533333 6.4 10.666667 0 4.266667 2.133333 8.533333 2.133333 12.8 0 2.133333 0 2.133333 0 4.266667 0 4.266667 2.133333 10.666667 4.266667 14.933333-2.133333 8.533333-2.133333 19.2 0 27.733333 4.266667 25.6 6.4 51.2 6.4 78.933333 0 260.266667-213.333333 471.466667-475.733333 471.466667-19.2 0-36.266667 0-53.333333-2.133333 4.266667-6.4 6.4-14.933333 6.4-21.333333 4.266667-23.466667-2.133333-46.933333-17.066667-66.133333 21.333333-14.933333 36.266667-40.533333 36.266667-70.4 0-42.666667-29.866667-78.933333-72.533333-85.333333-14.933333-2.133333-29.866667-6.4-44.8-14.933333 25.6-8.533333 46.933333-27.733333 55.466667-53.333333 12.8-38.4-2.133333-81.066667-38.4-102.4-46.933333-27.733333-76.8-76.8-78.933333-130.133333 104.533333 83.2 232.533333 134.4 366.933333 142.933333 2.133333 0 4.266667 0 6.4 0 17.066667 0 32-4.266667 46.933333-14.933333 10.666667-6.4 19.2-12.8 25.6-23.466667 17.066667-25.6 21.333333-57.6 8.533333-85.333333-6.4-14.933333-10.666667-29.866667-10.666667-44.8C633.6 221.866667 684.8 170.666667 746.666667 170.666667M746.666667 85.333333c-108.8 0-198.4 87.466667-198.4 198.4 0 27.733333 6.4 55.466667 17.066667 81.066667-2.133333 0-2.133333 0-4.266667 0 0 0 0 2.133333 0 2.133333-164.266667-10.666667-309.333333-91.733333-405.333333-211.2-32 40.533333-53.333333 93.866667-53.333333 149.333333 0 89.6 49.066667 166.4 121.6 209.066667-51.2-8.533333-100.266667-21.333333-147.2-42.666667C85.333333 582.4 170.666667 674.133333 281.6 691.2c-27.733333 4.266667-55.466667 6.4-83.2 6.4-12.8 0-23.466667 0-36.266667-2.133333 19.2 49.066667 55.466667 89.6 100.266667 117.333333-25.6 6.4-53.333333 8.533333-81.066667 8.533333-64 0-125.866667-14.933333-179.2-44.8C100.266667 876.8 241.066667 938.666667 392.533333 938.666667 704 938.666667 955.733333 689.066667 955.733333 381.866667c0-32-2.133333-61.866667-8.533333-91.733333 25.6-21.333333 46.933333-44.8 66.133333-70.4-23.466667 10.666667-46.933333 19.2-70.4 25.6 0-2.133333 0-4.266667-2.133333-6.4 32-25.6 61.866667-57.6 83.2-93.866667-32 21.333333-64 38.4-98.133333 53.333333C891.733333 130.133333 825.6 85.333333 746.666667 85.333333L746.666667 85.333333zM1013.333333 217.6 1013.333333 217.6 1013.333333 217.6z" p-id="3099"></path></svg>